<?xml version="1.0" encoding="UTF-8"?>
<svg version="1.1" xmlns="http://www.w3.org/2000/svg" width="2048" height="2048">
<path d="M0 0 C2.92908279 0.0056405 5.8581598 0.00846082 8.7872467 0.0110817 C35.6716461 0.04605897 62.43681051 0.25515375 89.20045471 3.06482315 C91.78031398 3.33303594 94.36134081 3.58663664 96.94288635 3.83807755 C181.65023657 12.16292865 263.97341089 31.72604805 476.9702301 123.75409317 C479.86508878 125.45230422 482.77307031 127.12649178 485.68312073 128.79852676 C529.35339147 153.96118276 570.82493293 182.90686616 609.81593323 214.82977676 C611.40886437 216.1321518 613.00654093 217.42871833 614.60499573 218.72430801 C625.26491584 227.37765493 635.66503542 236.30302826 645.72218323 245.65008926 C647.96959407 247.70770536 650.23672693 249.72440952 652.53468323 251.72430801 C664.94677226 262.55165751 676.60824451 274.18793325 688.26124573 285.81805801 C688.8716571 286.4258812 689.48206848 287.03370438 690.11097717 287.65994644 C701.80422212 299.31407237 701.80422212 299.31407237 707.11036682 305.54266739 C709.84902975 308.72915648 712.75505987 311.76091273 715.63624573 314.81805801 C720.40222439 319.90384662 725.12280784 325.00515467 729.63624573 330.31805801 C730.4174176 331.23200333 731.19858948 332.14594864 732.00343323 333.08758926 C734.89787505 336.4836628 737.77080283 339.89749671 740.63624573 343.31805801 C741.18232483 343.96984024 741.72840393 344.62162247 742.29103088 345.29315567 C750.4240942 355.02540378 758.29777113 364.92008401 765.92823792 375.05096817 C767.73522944 377.44944206 769.54899429 379.84270909 771.36280823 382.23602676 C827.08678452 455.93685671 871.73020084 537.59113953 959.88624573 863.88055801 C959.96337799 864.62528366 960.04051025 865.37000931 960.11997986 866.1373024 C960.70424049 871.85837682 961.19130903 877.5845511 961.63624573 883.31805801 C961.76705032 884.98676453 961.76705032 884.98676453 961.90049744 886.68918228 C963.6690507 910.04252646 964.00020265 933.33720176 963.95430374 956.75047684 C963.94866 959.674982 963.94584179 962.59948135 963.94322205 965.52399063 C963.90823189 992.39005745 963.69723315 1019.13688168 960.88948059 1045.882267 C960.6212678 1048.46212626 960.3676671 1051.0431531 960.1162262 1053.62469864 C951.18756201 1144.47599123 929.80925175 1233.56547057 863.63624573 1389.31805801 C863.11530334 1390.38717422 862.59436096 1391.45629044 862.05763245 1392.55780411 C855.28141387 1406.45656681 848.06556361 1420.02431885 840.32032776 1433.40741348 C838.60369389 1436.37431824 836.89904305 1439.34790536 835.19483948 1442.32196426 C805.54889085 1493.83481111 770.60018274 1542.45140912 731.63624573 1587.31805801 C730.98011292 1588.07602676 730.3239801 1588.83399551 729.64796448 1589.61493301 C725.83206083 1594.00102917 721.94444548 1598.32094187 718.04249573 1602.63055801 C716.10132245 1604.79862167 714.18337522 1606.98243658 712.27296448 1609.17743301 C701.41941426 1621.59308298 689.78063747 1633.27576176 678.13624573 1644.94305801 C677.52842255 1645.55346939 676.92059937 1646.16388077 676.2943573 1646.79278946 C664.64023137 1658.48603441 664.64023137 1658.48603441 658.41163635 1663.79217911 C655.22514726 1666.53084204 652.19339101 1669.43687215 649.13624573 1672.31805801 C644.05045712 1677.08403667 638.94914907 1681.80462013 633.63624573 1686.31805801 C632.26532776 1687.48981583 632.26532776 1687.48981583 630.86671448 1688.68524551 C618.33111428 1699.36841095 605.68498575 1709.92132524 592.54933167 1719.86151505 C590.30079945 1721.57345267 588.0663616 1723.30308218 585.83155823 1725.03290176 C575.75065933 1732.81128615 565.53490368 1740.26697944 554.97218323 1747.37665176 C551.75343504 1749.54513797 548.59107983 1751.77345033 545.45729065 1754.06244278 C535.51774765 1761.32212693 525.07456808 1767.80598988 514.63624573 1774.31805801 C513.85732971 1774.80419571 513.0784137 1775.2903334 512.27589417 1775.79120255 C438.22376666 1821.84881168 358.5475859 1858.12041501 98.63624573 1916.63055801 C97.53668045 1916.74386963 97.53668045 1916.74386963 96.41490173 1916.85947037 C90.82780414 1917.42524939 85.23551003 1917.89052769 79.63624573 1918.31805801 C78.52559753 1918.40419357 77.41494934 1918.49032913 76.27064514 1918.57907486 C53.24191412 1920.31003378 30.27877729 1920.6826054 7.19126129 1920.63611603 C4.34123681 1920.63046883 1.4912183 1920.62765265 -1.35881042 1920.62503433 C-28.28154033 1920.58908907 -55.07701382 1920.29284347 -81.88560486 1917.56805801 C-84.47154745 1917.30718365 -87.05854343 1917.05973104 -89.64598083 1916.81415176 C-133.3342454 1912.61873363 -176.6388138 1905.33197991 -219.36375427 1895.31805801 C-220.16458435 1895.13090225 -220.96541443 1894.94374649 -221.79051208 1894.75091934 C-261.71751056 1885.37806051 -301.13573009 1873.18069178 -339.36375427 1858.31805801 C-340.08677734 1858.03702225 -340.80980042 1857.75598648 -341.55473328 1857.46643448 C-385.50981235 1840.3313232 -429.0051419 1820.81098606 -469.71092224 1796.8732338 C-472.56541595 1795.19983743 -475.43403301 1793.55258216 -478.30516052 1791.90790176 C-529.84903346 1762.27892678 -578.48424746 1727.29316134 -623.36375427 1688.31805801 C-624.12172302 1687.6619252 -624.87969177 1687.00579239 -625.66062927 1686.32977676 C-630.04672542 1682.51387311 -634.36663813 1678.62625777 -638.67625427 1674.72430801 C-640.84431793 1672.78313474 -643.02813284 1670.8651875 -645.22312927 1668.95477676 C-657.63877924 1658.10122655 -669.32145801 1646.46244975 -680.98875427 1634.81805801 C-681.59916565 1634.21023483 -682.20957703 1633.60241165 -682.83848572 1632.97616959 C-694.53173067 1621.32204366 -694.53173067 1621.32204366 -699.83787537 1615.09344864 C-702.57653829 1611.90695955 -705.48256841 1608.87520329 -708.36375427 1605.81805801 C-713.12973293 1600.73226941 -717.85031638 1595.63096136 -722.36375427 1590.31805801 C-723.14492615 1589.4041127 -723.92609802 1588.49016739 -724.73094177 1587.54852676 C-727.6253836 1584.15245322 -730.49831137 1580.73861932 -733.36375427 1577.31805801 C-734.18287292 1576.34038467 -734.18287292 1576.34038467 -735.01853943 1575.34296036 C-743.15160275 1565.61071225 -751.02527967 1555.71603201 -758.65574646 1545.58514786 C-760.46273799 1543.18667397 -762.27650283 1540.79340694 -764.09031677 1538.40008926 C-818.98648761 1465.79411925 -863.84938378 1385.1579523 -952.67625427 1056.38055801 C-952.75179535 1055.64574203 -952.82733643 1054.91092606 -952.90516663 1054.15384293 C-953.47120172 1048.54770631 -953.93518364 1042.93625615 -954.36375427 1037.31805801 C-954.49295761 1035.65846054 -954.49295761 1035.65846054 -954.62477112 1033.96533585 C-956.38774647 1010.62474925 -956.72773185 987.34570684 -956.68181229 963.94534302 C-956.67616865 961.02373321 -956.67335026 958.10212922 -956.67073059 955.18051529 C-956.6352628 927.96959709 -956.41938233 900.86227264 -953.61698914 873.76947403 C-953.35167167 871.20109355 -953.09731173 868.63176312 -952.84373474 866.06219864 C-944.11536192 778.79279303 -924.03501984 692.82659866 -856.36375427 531.31805801 C-855.5823407 529.7143837 -855.5823407 529.7143837 -854.78514099 528.07831192 C-847.51457733 513.1655936 -839.67575336 498.67405759 -831.36375427 484.31805801 C-830.19310951 482.28164098 -829.0225376 480.24518207 -827.85203552 478.20868301 C-802.67729961 434.56877737 -773.76272734 393.11444665 -741.85203552 354.13837051 C-740.54966049 352.54543937 -739.25309395 350.94776281 -737.95750427 349.34930801 C-729.30415736 338.6893879 -720.37878402 328.28926832 -711.03172302 318.23212051 C-708.97410693 315.98470967 -706.95740277 313.71757681 -704.95750427 311.41962051 C-694.13015478 299.00753148 -682.49387904 287.34605924 -670.86375427 275.69305801 C-670.25593109 275.08264664 -669.64810791 274.47223526 -669.02186584 273.84332657 C-657.36773992 262.15008162 -657.36773992 262.15008162 -651.1391449 256.84393692 C-647.95265581 254.10527399 -644.92089955 251.19924387 -641.86375427 248.31805801 C-636.77796567 243.55207936 -631.67665762 238.8314959 -626.36375427 234.31805801 C-625.44980896 233.53688614 -624.53586365 232.75571426 -623.59422302 231.95087051 C-620.19814948 229.05642869 -616.78431558 226.18350092 -613.36375427 223.31805801 C-612.71197205 222.77197891 -612.06018982 222.22589981 -611.38865662 221.66327286 C-601.65640851 213.53020954 -591.76172827 205.65653261 -581.63084412 198.02606583 C-579.23237023 196.2190743 -576.83910319 194.40530945 -574.44578552 192.59149551 C-501.50879353 137.44504444 -420.68537402 92.94472892 -92.67625427 4.13055801 C-91.89075195 4.05165329 -91.10524963 3.97274857 -90.29594421 3.89145279 C-84.32367273 3.29899731 -78.34661046 2.7909359 -72.36375427 2.31805801 C-71.26984375 2.22978745 -70.17593323 2.14151688 -69.0488739 2.05057144 C-46.03194724 0.2477651 -23.07893483 -0.04513606 0 0 Z M-369.36375427 496.31805801 C-369.36375427 802.55805801 -369.36375427 1108.79805801 -369.36375427 1424.31805801 C-306.00375427 1424.31805801 -242.64375427 1424.31805801 -177.36375427 1424.31805801 C-177.36375427 1287.36805801 -177.36375427 1150.41805801 -177.36375427 1009.31805801 C-57.90375427 1009.31805801 61.55624573 1009.31805801 184.63624573 1009.31805801 C184.63624573 1146.26805801 184.63624573 1283.21805801 184.63624573 1424.31805801 C247.99624573 1424.31805801 311.35624573 1424.31805801 376.63624573 1424.31805801 C376.63624573 1118.07805801 376.63624573 811.83805801 376.63624573 496.31805801 C313.27624573 496.31805801 249.91624573 496.31805801 184.63624573 496.31805801 C184.63624573 613.13805801 184.63624573 729.95805801 184.63624573 850.31805801 C65.17624573 850.31805801 -54.28375427 850.31805801 -177.36375427 850.31805801 C-177.36375427 733.49805801 -177.36375427 616.67805801 -177.36375427 496.31805801 C-240.72375427 496.31805801 -304.08375427 496.31805801 -369.36375427 496.31805801 Z " fill="#1D88E5" transform="translate(1020.3637542724609,63.681941986083984)"/>
</svg>
